<?xml version="1.0" encoding="utf-8"?>
<!-- Generated by IcoMoon.io -->
<svg version="1.1" xmlns="http://www.w3.org/2000/svg" xmlns:xlink="http://www.w3.org/1999/xlink" width="752" height="32" viewBox="0 0 752 32">
<svg id="icon-down" viewBox="0 0 48 32" x="0" y="0">
<path fill="none" stroke="#000" stroke-width="8" stroke-miterlimit="4" stroke-linecap="round" stroke-linejoin="round" d="M4 6l20 20 20-20"></path>
</svg>
<svg id="icon-up" viewBox="0 0 48 32" x="0" y="0">
<path fill="none" stroke="#000" stroke-width="8" stroke-miterlimit="4" stroke-linecap="round" stroke-linejoin="round" d="M4 26l20-20 20 20"></path>
</svg>
<svg id="icon-home" width="32" height="32" viewBox="0 0 32 32" x="0" y="0">
<path d="M16 4.444c-0.506 0-1.012 0.172-1.424 0.516l-9.457 7.902c-0.651 0.544-0.874 1.479-0.47 2.226 0.337 0.622 0.952 0.94 1.573 0.941v6.193c0 1.964 1.592 3.556 3.556 3.556h12.444c1.964 0 3.556-1.592 3.556-3.556v-6.188c0.521-0 1.038-0.227 1.39-0.668 0.612-0.766 0.438-1.898-0.314-2.527l-1.076-0.898v-4.533c0-0.655-0.531-1.186-1.185-1.186h-1.185c-0.655 0-1.186 0.531-1.186 1.186v1.562l-4.798-4.009c-0.412-0.345-0.918-0.516-1.424-0.516zM16 8.539c0.101 0 0.202 0.034 0.285 0.103l5.938 4.961v8.397c0 0.123-0.1 0.222-0.222 0.222h-3.333v-5.333c0-0.491-0.398-0.889-0.889-0.889h-3.556c-0.491 0-0.889 0.398-0.889 0.889v5.333h-3.333c-0.123 0-0.222-0.1-0.222-0.222v-8.397l5.938-4.961c0.082-0.069 0.184-0.103 0.285-0.103z"></path>
</svg>
<svg id="icon-refresh" viewBox="0 0 32 32" x="0" y="0">
<path d="M12.8 2.56c-3.515 0-6.4 2.885-6.4 6.4v11.36l-1.84-1.84-1.8 1.82 4.92 4.92 4.92-4.92-1.8-1.8-1.84 1.82v-11.36c0-2.117 1.723-3.84 3.84-3.84h7.040v-2.56zM24.32 6.78l-4.94 4.94 1.82 1.8 1.84-1.84v11.36c0 2.117-1.723 3.84-3.84 3.84h-7.040v2.56h7.040c3.515 0 6.4-2.885 6.4-6.4v-11.36l1.84 1.84 1.8-1.82z"></path>
</svg>
<svg id="icon-like" viewBox="0 0 18 16" x="0" y="0">
<path d="M15.63 2.4575C15.2469 2.07425 14.7921 1.77023 14.2915 1.56281C13.7909 1.35539 13.2543 1.24863 12.7125 1.24863C12.1706 1.24863 11.634 1.35539 11.1334 1.56281C10.6329 1.77023 10.178 2.07425 9.79497 2.4575L8.99997 3.2525L8.20497 2.4575C7.4312 1.68373 6.38174 1.24903 5.28747 1.24903C4.19319 1.24903 3.14374 1.68373 2.36997 2.4575C1.5962 3.23127 1.1615 4.28072 1.1615 5.375C1.1615 6.46927 1.5962 7.51873 2.36997 8.2925L3.16497 9.0875L8.99997 14.9225L14.835 9.0875L15.63 8.2925C16.0132 7.90943 16.3172 7.45461 16.5247 6.95402C16.7321 6.45342 16.8388 5.91687 16.8388 5.375C16.8388 4.83313 16.7321 4.29658 16.5247 3.79598C16.3172 3.29539 16.0132 2.84057 15.63 2.4575Z" stroke-opacity="0.8" stroke-width="1.5" stroke-linecap="round" stroke-linejoin="round"/>
</svg>
<svg id="icon-x" viewBox="0 0 32 32" x="0" y="0">
<path stroke-width="2.4" stroke-miterlimit="4" stroke-linecap="round" stroke-linejoin="round" d="M24 8l-16 16"></path>
<path stroke-width="2.4" stroke-miterlimit="4" stroke-linecap="round" stroke-linejoin="round" d="M8 8l16 16"></path>
</svg>
<svg id="icon-contacts" viewBox="0 0 21 21" x="0" y="0">
<path d="M19 3h-11c-1.654 0-3 1.346-3 3v1h-1c-0.553 0-1 0.448-1 1s0.447 1 1 1h1v2h-1c-0.553 0-1 0.448-1 1s0.447 1 1 1h1v2h-1c-0.553 0-1 0.448-1 1s0.447 1 1 1h1v1c0 1.654 1.346 3 3 3h11c1.654 0 3-1.346 3-3v-12c0-1.654-1.346-3-3-3zM7 6c0-0.551 0.449-1 1-1v2h-1v-1zM7 9h1v2h-1v-2zM7 13h1v2h-1v-2zM7 18v-1h1v2c-0.551 0-1-0.449-1-1zM20 18c0 0.551-0.449 1-1 1h-10v-14h10c0.551 0 1 0.449 1 1v12z"></path>
<path d="M16 10.5c0 1.105-0.895 2-2 2s-2-0.895-2-2c0-1.105 0.895-2 2-2s2 0.895 2 2z"></path>
<path d="M14 13.356c-1.562 0-2.5 0.715-2.5 1.429 0 0.357 0.938 0.715 2.5 0.715 1.466 0 2.5-0.357 2.5-0.715 0-0.714-0.98-1.429-2.5-1.429z"></path>
</svg>
<svg id="icon-enter" viewBox="0 0 34 34" x="0" y="0">
<path d="M12 16h-10v-4h10v-4l6 6-6 6zM32 0v26l-12 6v-6h-12v-8h2v6h10v-18l8-4h-18v8h-2v-10z"></path>
</svg>
<svg id="icon-address" viewBox="0 0 32 28" x="0" y="0">
<path d="M16 17.672c0 1.359-0.891 2.328-2 2.328h-8c-1.109 0-2-0.969-2-2.328 0-2.422 0.594-5.109 3.062-5.109 0.766 0.438 1.797 1.188 2.938 1.188s2.172-0.75 2.938-1.188c2.469 0 3.062 2.688 3.062 5.109zM13.547 9.547c0 1.969-1.594 3.547-3.547 3.547s-3.547-1.578-3.547-3.547c0-1.953 1.594-3.547 3.547-3.547s3.547 1.594 3.547 3.547zM28 16.5v1c0 0.281-0.219 0.5-0.5 0.5h-9c-0.281 0-0.5-0.219-0.5-0.5v-1c0-0.281 0.219-0.5 0.5-0.5h9c0.281 0 0.5 0.219 0.5 0.5zM28 12.563v0.875c0 0.313-0.25 0.562-0.562 0.562h-8.875c-0.313 0-0.562-0.25-0.562-0.562v-0.875c0-0.313 0.25-0.562 0.562-0.562h8.875c0.313 0 0.562 0.25 0.562 0.562zM28 8.5v1c0 0.281-0.219 0.5-0.5 0.5h-9c-0.281 0-0.5-0.219-0.5-0.5v-1c0-0.281 0.219-0.5 0.5-0.5h9c0.281 0 0.5 0.219 0.5 0.5zM30 23.5v-19c0-0.266-0.234-0.5-0.5-0.5h-27c-0.266 0-0.5 0.234-0.5 0.5v19c0 0.266 0.234 0.5 0.5 0.5h5.5v-1.5c0-0.281 0.219-0.5 0.5-0.5h1c0.281 0 0.5 0.219 0.5 0.5v1.5h12v-1.5c0-0.281 0.219-0.5 0.5-0.5h1c0.281 0 0.5 0.219 0.5 0.5v1.5h5.5c0.266 0 0.5-0.234 0.5-0.5zM32 4.5v19c0 1.375-1.125 2.5-2.5 2.5h-27c-1.375 0-2.5-1.125-2.5-2.5v-19c0-1.375 1.125-2.5 2.5-2.5h27c1.375 0 2.5 1.125 2.5 2.5z"></path>
</svg>
<svg id="icon-telegram" viewBox="0 0 28 28" x="0" y="0">
<path d="M18.578 20.422l2.297-10.828c0.203-0.953-0.344-1.328-0.969-1.094l-13.5 5.203c-0.922 0.359-0.906 0.875-0.156 1.109l3.453 1.078 8.016-5.047c0.375-0.25 0.719-0.109 0.438 0.141l-6.484 5.859-0.25 3.563c0.359 0 0.516-0.156 0.703-0.344l1.687-1.625 3.5 2.578c0.641 0.359 1.094 0.172 1.266-0.594zM28 14c0 7.734-6.266 14-14 14s-14-6.266-14-14 6.266-14 14-14 14 6.266 14 14z"></path>
</svg>
<svg id="icon-facebook" viewBox="0 0 32 32" x="0" y="0">
<path d="M29 0h-26c-1.65 0-3 1.35-3 3v26c0 1.65 1.35 3 3 3h13v-14h-4v-4h4v-2c0-3.306 2.694-6 6-6h4v4h-4c-1.1 0-2 0.9-2 2v2h6l-1 4h-5v14h9c1.65 0 3-1.35 3-3v-26c0-1.65-1.35-3-3-3z"></path>
</svg>
<svg id="icon-linkedin" viewBox="0 0 32 32" x="0" y="0">
<path d="M29 0h-26c-1.65 0-3 1.35-3 3v26c0 1.65 1.35 3 3 3h26c1.65 0 3-1.35 3-3v-26c0-1.65-1.35-3-3-3zM12 26h-4v-14h4v14zM10 10c-1.106 0-2-0.894-2-2s0.894-2 2-2c1.106 0 2 0.894 2 2s-0.894 2-2 2zM26 26h-4v-8c0-1.106-0.894-2-2-2s-2 0.894-2 2v8h-4v-14h4v2.481c0.825-1.131 2.087-2.481 3.5-2.481 2.488 0 4.5 2.238 4.5 5v9z"></path>
</svg>
<svg id="icon-instagram" viewBox="0 0 32 32" x="0" y="0">
<path d="M16 2.881c4.275 0 4.781 0.019 6.462 0.094 1.563 0.069 2.406 0.331 2.969 0.55 0.744 0.288 1.281 0.638 1.837 1.194 0.563 0.563 0.906 1.094 1.2 1.838 0.219 0.563 0.481 1.412 0.55 2.969 0.075 1.688 0.094 2.194 0.094 6.463s-0.019 4.781-0.094 6.463c-0.069 1.563-0.331 2.406-0.55 2.969-0.288 0.744-0.637 1.281-1.194 1.837-0.563 0.563-1.094 0.906-1.837 1.2-0.563 0.219-1.413 0.481-2.969 0.55-1.688 0.075-2.194 0.094-6.463 0.094s-4.781-0.019-6.463-0.094c-1.563-0.069-2.406-0.331-2.969-0.55-0.744-0.288-1.281-0.637-1.838-1.194-0.563-0.563-0.906-1.094-1.2-1.837-0.219-0.563-0.481-1.413-0.55-2.969-0.075-1.688-0.094-2.194-0.094-6.463s0.019-4.781 0.094-6.463c0.069-1.563 0.331-2.406 0.55-2.969 0.288-0.744 0.638-1.281 1.194-1.838 0.563-0.563 1.094-0.906 1.838-1.2 0.563-0.219 1.412-0.481 2.969-0.55 1.681-0.075 2.188-0.094 6.463-0.094zM16 0c-4.344 0-4.887 0.019-6.594 0.094-1.7 0.075-2.869 0.35-3.881 0.744-1.056 0.412-1.95 0.956-2.837 1.85-0.894 0.888-1.438 1.781-1.85 2.831-0.394 1.019-0.669 2.181-0.744 3.881-0.075 1.713-0.094 2.256-0.094 6.6s0.019 4.887 0.094 6.594c0.075 1.7 0.35 2.869 0.744 3.881 0.413 1.056 0.956 1.95 1.85 2.837 0.887 0.887 1.781 1.438 2.831 1.844 1.019 0.394 2.181 0.669 3.881 0.744 1.706 0.075 2.25 0.094 6.594 0.094s4.888-0.019 6.594-0.094c1.7-0.075 2.869-0.35 3.881-0.744 1.050-0.406 1.944-0.956 2.831-1.844s1.438-1.781 1.844-2.831c0.394-1.019 0.669-2.181 0.744-3.881 0.075-1.706 0.094-2.25 0.094-6.594s-0.019-4.887-0.094-6.594c-0.075-1.7-0.35-2.869-0.744-3.881-0.394-1.063-0.938-1.956-1.831-2.844-0.887-0.887-1.781-1.438-2.831-1.844-1.019-0.394-2.181-0.669-3.881-0.744-1.712-0.081-2.256-0.1-6.6-0.1v0z"></path>
<path d="M16 7.781c-4.537 0-8.219 3.681-8.219 8.219s3.681 8.219 8.219 8.219 8.219-3.681 8.219-8.219c0-4.537-3.681-8.219-8.219-8.219zM16 21.331c-2.944 0-5.331-2.387-5.331-5.331s2.387-5.331 5.331-5.331c2.944 0 5.331 2.387 5.331 5.331s-2.387 5.331-5.331 5.331z"></path>
<path d="M26.462 7.456c0 1.060-0.859 1.919-1.919 1.919s-1.919-0.859-1.919-1.919c0-1.060 0.859-1.919 1.919-1.919s1.919 0.859 1.919 1.919z"></path>
</svg>
<svg id="icon-phone" viewBox="0 0 32 32" x="0" y="0">
<path d="M23 0h-14c-1.65 0-3 1.35-3 3v26c0 1.65 1.35 3 3 3h14c1.65 0 3-1.35 3-3v-26c0-1.65-1.35-3-3-3zM12 1.5h8v1h-8v-1zM16 30c-1.105 0-2-0.895-2-2s0.895-2 2-2 2 0.895 2 2-0.895 2-2 2zM24 24h-16v-20h16v20z"></path>
</svg>
<svg id="icon-pen" viewBox="0 0 32 32" x="0" y="0">
<path d="M31.818 9.122l-8.939-8.939c-0.292-0.292-0.676-0.226-0.855 0.146l-1.199 2.497 8.35 8.35 2.497-1.199c0.372-0.178 0.438-0.563 0.146-0.855z"></path>
<path d="M19.231 4.231l-8.231 0.686c-0.547 0.068-1.002 0.184-1.159 0.899-0 0.001-0 0.001-0.001 0.002-2.232 10.721-9.84 21.183-9.84 21.183l1.793 1.793 8.5-8.5c-0.187-0.392-0.293-0.83-0.293-1.293 0-1.657 1.343-3 3-3s3 1.343 3 3-1.343 3-3 3c-0.463 0-0.902-0.105-1.293-0.293l-8.5 8.5 1.793 1.793c0 0 10.462-7.608 21.183-9.84 0.001-0 0.001-0 0.002-0.001 0.714-0.157 0.831-0.612 0.898-1.159l0.686-8.231-8.538-8.539z"></path>
</svg>
</svg>
